<?xml version="1.0" standalone="no"?>
<!DOCTYPE svg PUBLIC "-//W3C//DTD SVG 20010904//EN"
 "http://www.w3.org/TR/2001/REC-SVG-20010904/DTD/svg10.dtd">
<svg version="1.0" xmlns="http://www.w3.org/2000/svg"
 width="866.000000pt" height="866.000000pt" viewBox="0 0 866.000000 866.000000"
 preserveAspectRatio="xMidYMid meet">
<metadata>
Created by potrace 1.14, written by Peter Selinger 2001-2017
</metadata>
<g transform="translate(0.000000,866.000000) scale(0.100000,-0.100000)"
fill="#000000" stroke="none">
<path d="M4128 8645 c-2 -1 -51 -6 -109 -9 -58 -4 -116 -8 -130 -11 -13 -2
-48 -6 -77 -9 -69 -8 -110 -14 -207 -31 -44 -8 -91 -16 -105 -19 -48 -8 -176
-38 -265 -63 -49 -13 -98 -26 -107 -28 -39 -9 -292 -97 -384 -134 -173 -69
-371 -164 -509 -243 -33 -19 -71 -41 -85 -49 -14 -8 -88 -55 -165 -105 -805
-520 -1424 -1316 -1734 -2228 -71 -206 -133 -449 -165 -641 -3 -16 -8 -41 -11
-55 -10 -48 -36 -266 -43 -360 -4 -52 -7 -207 -7 -345 1 -283 8 -391 45 -642
13 -87 13 -89 55 -293 9 -43 30 -126 57 -220 171 -608 487 -1190 913 -1680 58
-67 341 -347 410 -407 74 -63 256 -209 291 -233 12 -8 64 -44 115 -80 198
-137 498 -303 704 -390 55 -24 119 -51 142 -61 155 -68 610 -198 803 -229 41
-7 84 -14 95 -16 11 -3 54 -9 95 -15 41 -5 89 -12 105 -14 149 -20 681 -28
850 -12 183 17 440 57 593 93 37 9 77 18 89 20 43 8 321 94 418 129 457 166
968 460 1298 748 18 15 60 51 94 80 61 50 296 285 378 377 23 25 71 83 109
130 38 47 77 95 87 108 49 57 205 289 276 407 76 128 193 352 245 470 33 75
98 235 103 255 2 8 23 69 45 135 49 142 73 227 111 395 44 191 77 403 96 609
9 109 10 557 1 676 -18 233 -74 569 -128 765 -208 758 -569 1389 -1105 1935
-90 91 -135 134 -271 255 -70 63 -256 205 -369 282 -517 354 -1088 586 -1700
693 -74 13 -271 39 -385 51 -50 5 -557 13 -562 9z m512 -969 c19 -3 58 -8 85
-10 444 -45 942 -213 1345 -455 88 -53 265 -173 320 -217 493 -396 842 -852
1054 -1379 27 -66 52 -129 57 -140 57 -134 143 -492 174 -725 27 -206 27 -629
0 -830 -2 -19 -7 -57 -11 -84 -6 -51 -7 -57 -25 -146 -133 -670 -441 -1252
-914 -1725 -158 -159 -191 -189 -290 -265 -38 -30 -72 -57 -75 -61 -11 -14
-232 -160 -320 -211 -355 -208 -832 -376 -1200 -423 -25 -3 -56 -8 -70 -10
-149 -27 -724 -27 -860 0 -14 3 -47 8 -75 11 -27 3 -66 10 -85 14 -19 5 -54
12 -77 15 -72 10 -271 63 -409 109 -504 169 -969 462 -1339 847 -112 116 -249
281 -316 379 -24 35 -49 70 -56 77 -29 32 -172 281 -233 408 -76 155 -125 277
-176 435 -35 107 -88 306 -98 370 -5 33 -9 51 -21 110 -3 14 -7 48 -10 75 -4
28 -10 79 -14 115 -12 89 -11 68 -15 325 -2 127 0 268 5 315 15 155 20 195 24
210 2 8 6 37 10 64 3 28 12 80 20 116 8 36 16 77 19 90 48 241 190 615 324
855 78 141 95 169 155 259 276 411 641 759 1067 1016 96 58 283 155 370 192
19 8 58 25 85 36 154 66 440 154 575 177 19 3 51 10 70 15 19 4 76 14 125 20
50 7 97 14 106 15 8 2 55 6 105 10 49 4 90 8 92 10 5 5 468 -3 502 -9z"/>
<path d="M4198 5765 c-2 -2 -28 -6 -58 -10 -182 -22 -390 -97 -560 -202 -105
-65 -139 -93 -260 -213 -201 -200 -332 -442 -391 -726 -18 -86 -23 -142 -23
-269 -1 -171 2 -204 35 -355 83 -383 386 -762 759 -950 77 -39 259 -104 315
-113 17 -3 41 -8 55 -11 65 -15 106 -18 250 -21 117 -2 181 2 262 16 172 30
389 111 506 190 24 16 46 29 49 29 10 0 137 103 197 159 214 204 371 493 422
782 18 98 24 339 12 439 -27 223 -119 459 -254 652 -67 95 -219 252 -312 321
-34 26 -64 47 -67 47 -2 0 -24 14 -49 31 -90 60 -322 155 -430 175 -131 24
-208 32 -323 32 -73 -1 -134 -2 -135 -3z"/>
</g>
</svg>
