<?xml version="1.0" encoding="utf-8"?>
<!-- Generator: Adobe Illustrator 16.0.0, SVG Export Plug-In . SVG Version: 6.00 Build 0)  -->
<!DOCTYPE svg PUBLIC "-//W3C//DTD SVG 1.1//EN" "http://www.w3.org/Graphics/SVG/1.1/DTD/svg11.dtd">
<svg version="1.1" id="Laag_1" xmlns="http://www.w3.org/2000/svg" xmlns:xlink="http://www.w3.org/1999/xlink" x="0px" y="0px"
	 width="481px" height="191px" viewBox="291.896 56.448 481 191" enable-background="new 291.896 56.448 481 191"
	 xml:space="preserve">
<g id="Laag_x0020_1">
	<path fill="#16154B" stroke="#16154B" stroke-miterlimit="10" d="M298.267,187.913h20.543l5.978-16.195h28.478l5.652,16.195h22.174
		l-29.239-75.868h-24.781L298.267,187.913z M348.483,157.37h-19.021l9.783-29.673h0.217L348.483,157.37L348.483,157.37z
		 M388.048,187.913h19.564V164c0-12.173,4.131-17.717,11.087-17.717c5.543,0,7.825,4.783,7.825,11.196v30.434h19.565V164
		c0-12.173,4.13-17.717,11.086-17.717c5.544,0,7.826,4.783,7.826,11.196v30.434h19.564v-33.369c0-15.325-3.695-24.564-19.999-24.564
		c-8.043,0-15.543,3.261-20.108,10.869c-3.043-7.391-9.674-10.869-17.717-10.869c-8.913,0-16.738,3.587-20.651,11.739h-0.218
		v-10.435h-17.825V187.913L388.048,187.913z M499.022,187.913h19.565v-56.629h-19.565V187.913z M518.588,107.698h-19.565v14.348
		h19.565V107.698z M578.803,133.132c-4.457-2.174-9.674-3.152-15.544-3.152c-18.694,0-32.934,10.869-32.934,29.674
		c0,18.694,14.239,29.582,32.934,29.582c5.218,0,11.087-0.869,15.979-2.519l-0.435-14.564c-3.262,1.739-7.718,2.718-12.174,2.718
		c-8.479,0-16.087-5.87-16.087-14.892c0-9.782,6.521-15.651,15-15.651c4.674,0,8.261,0.979,11.848,3.152L578.803,133.132z
		 M589.673,187.913h19.564v-56.629h-19.564V187.913z M609.237,107.698h-19.564v14.348h19.564V107.698z M618.693,144.98h11.195
		v23.043c0,13.478,4.239,21.213,21.738,21.213c4.892,0,8.587-0.652,12.282-1.087l-0.652-12.735
		c-1.956,0.326-4.021,0.761-5.978,0.761c-6.195,0-7.826-3.478-7.826-10.325V144.98h13.695v-13.695h-13.695v-18.695l-19.238,5.979
		v12.717h-11.521V144.98z M674.235,187.913H693.8v-56.629h-19.564V187.913z M693.8,107.698h-19.564v14.348H693.8V107.698z
		 M763.255,187.913c-0.869-4.456-1.087-8.913-1.087-13.369v-21.087c0-17.282-12.5-23.478-26.956-23.478
		c-8.369,0-15.651,1.195-22.607,4.021l0.325,13.261c5.435-3.043,11.739-4.239,18.043-4.239c7.065,0,12.826,2.065,12.935,9.783
		c-2.5-0.436-5.978-0.761-9.13-0.761c-10.435,0-29.238,2.064-29.238,19.347c0,12.282,10,17.844,21.194,17.844
		c8.044,0,13.479-3.17,17.936-10.235h0.217c0,2.935,0.326,5.87,0.435,8.913H763.255L763.255,187.913z M723.799,169.979
		c0-5.435,5.218-7.5,11.848-7.5c2.935,0,5.761,0.218,8.261,0.326c0,6.631-4.674,13.369-12.064,13.369
		C727.277,176.174,723.799,173.892,723.799,169.979z"/>
	<path fill="#16154B" stroke="#16154B" stroke-miterlimit="10" d="M327.532,92.792l4.433-29.687h4.099l-1.934,12.775h16.744
		l1.905-12.775h4.056l-4.433,29.687h-4.056l1.999-13.305h-16.723l-1.999,13.305H327.532z M373.731,92.792h-3.694l0.362-2.44
		c-0.768,0.963-1.571,1.673-2.419,2.136c-0.848,0.457-1.767,0.688-2.76,0.688c-1.897,0-3.476-0.746-4.743-2.23
		c-1.268-1.485-1.897-3.36-1.897-5.62c0-1.333,0.217-2.629,0.645-3.903c0.435-1.275,1.05-2.448,1.861-3.527
		c1.268-1.666,2.752-2.868,4.433-3.606c1.68-0.731,3.859-1.102,6.532-1.102h4.563L373.731,92.792L373.731,92.792z M370.95,86.744
		l1.484-10.334c-0.116-0.015-0.239-0.029-0.384-0.036c-0.138-0.008-0.348-0.008-0.616-0.008c-2.6,0-4.722,0.797-6.358,2.397
		c-1.644,1.601-2.462,3.65-2.462,6.156c0,1.542,0.348,2.78,1.05,3.722c0.702,0.942,1.607,1.412,2.724,1.412
		c0.861,0,1.68-0.274,2.44-0.825C369.595,88.678,370.298,87.846,370.95,86.744L370.95,86.744z M382.066,92.792h-3.649l2.926-19.605
		h3.649l-0.528,3.694c0.963-1.499,1.825-2.542,2.585-3.122c0.769-0.579,1.615-0.869,2.55-0.869c0.239,0,0.492,0.029,0.768,0.087
		c0.282,0.059,0.572,0.138,0.884,0.254l-0.978,3.527c-0.195-0.044-0.377-0.08-0.551-0.102c-0.167-0.021-0.348-0.029-0.528-0.029
		c-1.087,0-2.071,0.405-2.948,1.217c-0.876,0.818-1.716,2.107-2.527,3.875L382.066,92.792z M391.93,92.792l2.97-19.605h3.78
		l-0.449,2.745c1.108-1.079,2.194-1.883,3.273-2.411c1.072-0.529,2.151-0.797,3.245-0.797c1.245,0,2.259,0.326,3.056,0.978
		c0.789,0.652,1.304,1.586,1.528,2.803c1.397-1.332,2.68-2.296,3.838-2.89c1.159-0.594,2.325-0.891,3.498-0.891
		c1.485,0,2.629,0.449,3.419,1.347c0.789,0.898,1.188,2.202,1.188,3.918c0,0.362-0.029,0.812-0.087,1.348
		c-0.058,0.528-0.131,1.108-0.231,1.745l-1.738,11.711h-3.773l1.868-12.682c0.051-0.369,0.102-0.717,0.138-1.043
		c0.037-0.325,0.051-0.63,0.051-0.912c0-0.761-0.188-1.34-0.572-1.724c-0.384-0.392-0.948-0.587-1.702-0.587
		c-0.904,0-1.847,0.333-2.839,1c-0.992,0.659-2.013,1.65-3.056,2.969L407.4,92.792h-3.737l1.868-12.682
		c0.059-0.369,0.102-0.717,0.138-1.043c0.036-0.325,0.059-0.63,0.059-0.912c0-0.761-0.196-1.34-0.572-1.724
		c-0.384-0.392-0.949-0.587-1.702-0.587c-0.905,0-1.854,0.333-2.847,1c-0.984,0.659-2.006,1.65-3.049,2.969l-1.825,12.979H391.93
		L391.93,92.792z M424.223,84.456c0-3.273,0.92-6.04,2.767-8.3c1.847-2.267,4.049-3.396,6.612-3.396
		c2.404,0,4.302,0.782,5.692,2.347c1.398,1.564,2.094,3.708,2.094,6.438c0,3.353-0.92,6.134-2.76,8.328
		c-1.84,2.202-4.149,3.303-6.938,3.303c-2.317,0-4.143-0.775-5.475-2.325C424.89,89.301,424.223,87.172,424.223,84.456
		L424.223,84.456z M433.725,75.881c-1.484,0-2.773,0.869-3.867,2.607c-1.094,1.745-1.644,3.831-1.644,6.265
		c0,1.666,0.325,2.984,0.984,3.947s1.543,1.441,2.665,1.441c1.608,0,2.94-0.833,3.983-2.506c1.05-1.666,1.572-3.832,1.572-6.489
		c0-1.673-0.319-2.97-0.964-3.89S434.899,75.881,433.725,75.881L433.725,75.881z M443.727,92.792l2.969-19.605h3.78l-0.484,3.144
		c1.209-1.217,2.396-2.122,3.541-2.716s2.281-0.891,3.411-0.891c1.478,0,2.614,0.471,3.433,1.412
		c0.812,0.941,1.217,2.267,1.217,3.976c0,0.428-0.021,0.891-0.065,1.391c-0.043,0.508-0.101,1.036-0.188,1.601l-1.738,11.689h-3.78
		l1.788-12.638c0.051-0.413,0.095-0.79,0.124-1.13c0.028-0.333,0.043-0.616,0.043-0.826c0-0.76-0.188-1.34-0.572-1.724
		c-0.384-0.391-0.948-0.586-1.702-0.586c-0.905,0-1.854,0.333-2.839,0.999c-0.992,0.659-2.013,1.651-3.056,2.97l-2.079,12.935
		H443.727L443.727,92.792z M468.344,67.097c0-0.587,0.203-1.079,0.602-1.478c0.405-0.398,0.897-0.602,1.478-0.602
		c0.564,0,1.042,0.203,1.44,0.608c0.398,0.413,0.594,0.898,0.594,1.471c0,0.571-0.195,1.057-0.594,1.455s-0.876,0.602-1.44,0.602
		c-0.595,0-1.087-0.195-1.485-0.587C468.539,68.168,468.344,67.683,468.344,67.097L468.344,67.097z M468.597,92.792h-3.78
		l2.867-19.605h3.773L468.597,92.792L468.597,92.792z M489.976,87.064l-0.615,3.954c-1.13,0.746-2.245,1.304-3.339,1.658
		c-1.102,0.362-2.202,0.543-3.303,0.543c-2.462,0-4.483-0.861-6.055-2.585c-1.578-1.731-2.368-3.947-2.368-6.663
		c0-3.259,0.898-5.946,2.687-8.068c1.789-2.122,4.049-3.179,6.772-3.179c2.267,0,3.997,0.659,5.199,1.984
		c1.202,1.318,1.804,3.223,1.804,5.692v2.23h-12.385l-0.087,1.297v0.485c0,1.6,0.457,2.933,1.377,4.004
		c0.919,1.065,2.057,1.602,3.396,1.602c1.064,0,2.136-0.232,3.237-0.703C487.391,88.852,488.622,88.099,489.976,87.064
		L489.976,87.064z M478.99,79.894h8.249v-0.529c0-1.101-0.305-1.984-0.913-2.629c-0.608-0.651-1.434-0.978-2.484-0.978
		c-1.224,0-2.237,0.333-3.02,1.007S479.425,78.482,478.99,79.894z"/>
	<g id="_129603272">
		<path id="_130419152" fill="#16154B" stroke="#16154B" stroke-miterlimit="10" d="M327.532,239.207l4.433-29.686h4.099
			l-1.934,12.775h16.744l1.905-12.775h4.056l-4.433,29.686h-4.056l1.999-13.304h-16.723l-1.999,13.304H327.532z M374.26,233.479
			l-0.616,3.954c-1.13,0.746-2.245,1.304-3.338,1.658c-1.102,0.362-2.202,0.544-3.303,0.544c-2.463,0-4.483-0.862-6.055-2.586
			c-1.579-1.73-2.368-3.947-2.368-6.663c0-3.259,0.898-5.945,2.687-8.067c1.789-2.122,4.049-3.18,6.771-3.18
			c2.268,0,3.998,0.659,5.2,1.984c1.202,1.318,1.804,3.223,1.804,5.692v2.231h-12.385l-0.087,1.296v0.485
			c0,1.601,0.456,2.933,1.376,4.005c0.92,1.064,2.058,1.601,3.396,1.601c1.065,0,2.137-0.231,3.237-0.703
			C371.674,235.268,372.905,234.515,374.26,233.479z M363.273,226.309h8.248v-0.528c0-1.102-0.304-1.984-0.912-2.629
			c-0.608-0.652-1.434-0.979-2.484-0.979c-1.224,0-2.237,0.334-3.02,1.007C364.323,223.854,363.707,224.897,363.273,226.309z
			 M382.573,209.522h3.86l-4.476,29.686h-3.86L382.573,209.522z M387.26,239.207l2.969-19.604h3.78l-0.448,2.745
			c1.107-1.079,2.194-1.884,3.273-2.412c1.071-0.528,2.151-0.797,3.244-0.797c1.246,0,2.26,0.326,3.057,0.978
			c0.789,0.652,1.304,1.587,1.528,2.803c1.397-1.332,2.68-2.295,3.838-2.89c1.159-0.594,2.325-0.891,3.498-0.891
			c1.484,0,2.629,0.449,3.419,1.347c0.789,0.898,1.188,2.202,1.188,3.919c0,0.362-0.029,0.811-0.087,1.347
			c-0.059,0.529-0.131,1.108-0.231,1.745l-1.738,11.711h-3.773l1.868-12.681c0.051-0.37,0.102-0.718,0.138-1.043
			c0.036-0.326,0.051-0.63,0.051-0.913c0-0.761-0.188-1.34-0.572-1.724c-0.384-0.391-0.949-0.586-1.702-0.586
			c-0.905,0-1.847,0.333-2.839,0.999c-0.992,0.659-2.014,1.651-3.056,2.97l-1.934,12.978h-3.737l1.868-12.681
			c0.058-0.37,0.102-0.718,0.138-1.043c0.036-0.326,0.058-0.63,0.058-0.913c0-0.761-0.195-1.34-0.572-1.724
			c-0.384-0.391-0.948-0.586-1.701-0.586c-0.905,0-1.854,0.333-2.847,0.999c-0.984,0.659-2.006,1.651-3.049,2.97l-1.825,12.978
			H387.26L387.26,239.207z M419.552,230.871c0-3.273,0.92-6.04,2.767-8.299c1.847-2.268,4.049-3.397,6.612-3.397
			c2.404,0,4.302,0.782,5.692,2.347c1.397,1.564,2.093,3.708,2.093,6.438c0,3.354-0.92,6.134-2.759,8.329
			c-1.84,2.201-4.15,3.302-6.938,3.302c-2.317,0-4.143-0.774-5.476-2.324C420.219,235.717,419.552,233.587,419.552,230.871
			L419.552,230.871z M429.054,222.297c-1.484,0-2.773,0.869-3.867,2.606c-1.094,1.746-1.645,3.832-1.645,6.265
			c0,1.666,0.326,2.984,0.985,3.947c0.659,0.964,1.543,1.441,2.665,1.441c1.607,0,2.94-0.833,3.983-2.506
			c1.05-1.666,1.571-3.831,1.571-6.489c0-1.673-0.318-2.969-0.963-3.889S430.228,222.297,429.054,222.297L429.054,222.297z
			 M439.056,239.207l2.969-19.604h3.78l-0.484,3.144c1.209-1.218,2.396-2.122,3.541-2.717c1.145-0.594,2.281-0.891,3.411-0.891
			c1.478,0,2.614,0.471,3.433,1.412c0.812,0.942,1.217,2.268,1.217,3.977c0,0.427-0.021,0.891-0.065,1.391
			c-0.043,0.507-0.101,1.035-0.188,1.601l-1.738,11.688h-3.78l1.789-12.638c0.051-0.413,0.094-0.789,0.123-1.13
			c0.029-0.333,0.044-0.615,0.044-0.825c0-0.761-0.188-1.34-0.572-1.724c-0.384-0.392-0.949-0.587-1.702-0.587
			c-0.905,0-1.854,0.333-2.839,0.999c-0.992,0.659-2.014,1.651-3.057,2.97l-2.078,12.935H439.056L439.056,239.207z M475.253,239.251
			c-1.217,0.13-2.223,0.217-3.013,0.268c-0.797,0.051-1.455,0.072-1.977,0.072c-3.194,0-5.707-0.761-7.525-2.288
			c-1.817-1.528-2.723-3.614-2.723-6.265c0-1.876,0.441-3.65,1.318-5.302c0.876-1.658,2.129-3.078,3.751-4.266
			c1.108-0.804,2.354-1.404,3.744-1.789c1.397-0.391,3.006-0.586,4.831-0.586h0.869l1.376-9.574h3.78L475.253,239.251z
			 M471.9,236.26l2.013-13.876c-0.102,0-0.253-0.008-0.456-0.022c-0.203-0.014-0.354-0.021-0.456-0.021
			c-2.701,0-4.889,0.768-6.568,2.289c-1.674,1.527-2.514,3.49-2.514,5.88c0,1.782,0.551,3.224,1.645,4.317
			c1.093,1.093,2.527,1.644,4.294,1.644c0.413,0,0.782-0.015,1.115-0.051S471.617,236.324,471.9,236.26L471.9,236.26z
			 M491.331,231.168l0.384-3.52h11.139l-0.405,3.52H491.331L491.331,231.168z"/>
		<path id="_130358520" fill="#16154B" stroke="#16154B" stroke-miterlimit="10" d="M517.221,239.207l4.432-29.686h3.73
			c3.273,0,5.765,0.615,7.495,1.854c1.724,1.238,2.586,3.027,2.586,5.359c0,1.391-0.333,2.614-1.007,3.672
			c-0.674,1.064-1.651,1.927-2.94,2.593c1.934,0.761,3.39,1.789,4.36,3.085c0.97,1.297,1.455,2.847,1.455,4.657
			c0,1.673-0.435,3.165-1.304,4.49c-0.869,1.317-2.1,2.339-3.686,3.063c-0.688,0.326-1.478,0.558-2.354,0.702
			c-0.876,0.138-2.165,0.21-3.859,0.21h-1.21H517.221L517.221,239.207z M523.964,221.428c0.015,0.015,0.058,0.021,0.13,0.021
			c0.595,0.044,1.036,0.065,1.333,0.065c1.912,0,3.39-0.413,4.433-1.231c1.05-0.826,1.571-1.978,1.571-3.462
			c0-1.217-0.464-2.144-1.397-2.781c-0.935-0.637-2.304-0.956-4.114-0.956h-0.702L523.964,221.428L523.964,221.428z M521.82,235.985
			h3.44c2.729,0,4.743-0.435,6.047-1.297c1.297-0.861,1.948-2.201,1.948-4.026c0-1.883-0.768-3.339-2.304-4.374
			c-1.535-1.036-3.708-1.55-6.518-1.55h-0.956L521.82,235.985z M543.105,239.207h-3.65l2.926-19.604h3.65l-0.529,3.693
			c0.964-1.499,1.825-2.542,2.586-3.121c0.768-0.58,1.615-0.869,2.549-0.869c0.239,0,0.493,0.028,0.769,0.087
			c0.282,0.058,0.571,0.138,0.883,0.253l-0.978,3.527c-0.195-0.043-0.377-0.08-0.55-0.102c-0.167-0.021-0.348-0.029-0.529-0.029
			c-1.086,0-2.071,0.406-2.947,1.218c-0.877,0.818-1.717,2.106-2.527,3.874L543.105,239.207z M553.201,230.871
			c0-3.273,0.92-6.04,2.767-8.299c1.847-2.268,4.048-3.397,6.611-3.397c2.405,0,4.303,0.782,5.693,2.347
			c1.397,1.564,2.093,3.708,2.093,6.438c0,3.354-0.92,6.134-2.76,8.329c-1.839,2.201-4.149,3.302-6.938,3.302
			c-2.317,0-4.143-0.774-5.476-2.324C553.867,235.717,553.201,233.587,553.201,230.871z M562.703,222.297
			c-1.485,0-2.774,0.869-3.868,2.606c-1.094,1.746-1.644,3.832-1.644,6.265c0,1.666,0.326,2.984,0.984,3.947
			c0.659,0.964,1.543,1.441,2.666,1.441c1.607,0,2.939-0.833,3.983-2.506c1.05-1.666,1.571-3.831,1.571-6.489
			c0-1.673-0.318-2.969-0.963-3.889S563.876,222.297,562.703,222.297L562.703,222.297z M591.353,219.603l-2.904,19.604h-3.78
			l0.427-3.179c-1.217,1.23-2.397,2.136-3.549,2.723c-1.145,0.587-2.281,0.884-3.411,0.884c-1.478,0-2.614-0.464-3.433-1.398
			c-0.812-0.934-1.217-2.259-1.217-3.969c0-0.441,0.021-0.912,0.065-1.412c0.043-0.5,0.101-1.035,0.188-1.601l1.781-11.652h3.759
			l-1.745,12.479c-0.051,0.398-0.102,0.768-0.138,1.122c-0.036,0.355-0.051,0.631-0.051,0.833c0,0.761,0.195,1.34,0.586,1.724
			c0.384,0.392,0.949,0.587,1.688,0.587c0.906,0,1.848-0.333,2.839-1c0.992-0.666,2.014-1.65,3.057-2.969l2.057-12.775H591.353
			L591.353,219.603z M599.601,239.207h-1.824l-4.07-19.604h3.693l2.376,12.182l6.388-12.182h1.824l2.607,12.182l6.214-12.182h3.737
			l-10.204,19.604h-1.615l-2.737-12.479L599.601,239.207z M620.591,239.207l4.432-29.686h3.737l-1.956,13.181
			c1.231-1.202,2.419-2.093,3.57-2.68c1.145-0.587,2.289-0.884,3.434-0.884c1.484,0,2.636,0.464,3.439,1.391
			c0.805,0.927,1.21,2.245,1.21,3.954c0,0.413-0.021,0.869-0.065,1.369c-0.043,0.507-0.102,1.043-0.188,1.622l-1.745,11.732h-3.773
			l1.586-10.863c0.188-1.173,0.305-2.006,0.362-2.498c0.058-0.5,0.087-0.877,0.087-1.145c0-0.826-0.181-1.441-0.551-1.861
			c-0.369-0.413-0.927-0.623-1.68-0.623c-0.862,0-1.811,0.348-2.839,1.05c-1.036,0.703-2.166,1.774-3.396,3.216l-1.869,12.725
			H620.591z M659.967,219.603l-2.904,19.604h-3.78l0.427-3.179c-1.217,1.23-2.397,2.136-3.549,2.723
			c-1.144,0.587-2.281,0.884-3.411,0.884c-1.478,0-2.614-0.464-3.433-1.398c-0.811-0.934-1.217-2.259-1.217-3.969
			c0-0.441,0.021-0.912,0.065-1.412c0.043-0.5,0.102-1.035,0.188-1.601l1.781-11.652h3.759l-1.745,12.479
			c-0.051,0.398-0.102,0.768-0.138,1.122c-0.036,0.355-0.051,0.631-0.051,0.833c0,0.761,0.195,1.34,0.587,1.724
			c0.384,0.392,0.948,0.587,1.688,0.587c0.905,0,1.847-0.333,2.839-1c0.992-0.666,2.013-1.65,3.056-2.969l2.058-12.775H659.967
			L659.967,219.603z M665.934,213.512c0-0.587,0.202-1.079,0.601-1.478c0.405-0.398,0.898-0.601,1.478-0.601
			c0.564,0,1.043,0.202,1.441,0.607c0.398,0.413,0.594,0.898,0.594,1.471s-0.195,1.058-0.594,1.456
			c-0.398,0.397-0.876,0.601-1.441,0.601c-0.594,0-1.086-0.195-1.484-0.587C666.13,214.584,665.934,214.099,665.934,213.512z
			 M666.187,239.207h-3.78l2.868-19.604h3.773L666.187,239.207L666.187,239.207z M671.228,236.898l0.912-3.65
			c1.318,1.057,2.44,1.817,3.368,2.281c0.927,0.456,1.789,0.688,2.6,0.688c0.761,0,1.391-0.188,1.883-0.571
			c0.5-0.384,0.746-0.862,0.746-1.441c0-0.905-1.158-2.173-3.483-3.803c-0.029-0.028-0.051-0.051-0.065-0.065
			c-1.832-1.281-3.005-2.317-3.505-3.092c-0.5-0.782-0.753-1.688-0.753-2.724c0-1.593,0.571-2.89,1.709-3.867
			c1.137-0.985,2.65-1.478,4.548-1.478c1.145,0,2.238,0.167,3.273,0.507c1.043,0.341,2.021,0.854,2.94,1.528l-0.318,3.947
			c-1.115-0.876-2.188-1.535-3.201-1.97c-1.021-0.441-1.977-0.659-2.868-0.659c-0.688,0-1.253,0.159-1.673,0.479
			c-0.427,0.318-0.637,0.73-0.637,1.237c0,0.769,0.897,1.768,2.693,3.014c0.826,0.564,1.478,1.028,1.955,1.383
			c1.218,0.935,2.064,1.796,2.543,2.601c0.484,0.796,0.724,1.716,0.724,2.744c0,1.645-0.601,2.991-1.796,4.034
			c-1.195,1.05-2.723,1.571-4.592,1.571c-1.188,0-2.346-0.217-3.469-0.645C673.64,238.512,672.46,237.831,671.228,236.898
			L671.228,236.898z"/>
	</g>
</g>
</svg>
