<?xml version="1.0" encoding="utf-8"?>
<!-- Generator: Adobe Illustrator 16.0.0, SVG Export Plug-In . SVG Version: 6.00 Build 0)  -->
<!DOCTYPE svg PUBLIC "-//W3C//DTD SVG 1.1//EN" "http://www.w3.org/Graphics/SVG/1.1/DTD/svg11.dtd">
<svg version="1.1" id="Laag_1" xmlns="http://www.w3.org/2000/svg" xmlns:xlink="http://www.w3.org/1999/xlink" x="0px" y="0px"
	 width="398px" height="398px" viewBox="2.136 0.911 398 398" enable-background="new 2.136 0.911 398 398" xml:space="preserve">
<g id="Laag_x0020_1">
	<polygon fill="none" points="-15.217,-17.959 416.947,-17.959 416.947,415.041 -15.217,415.041 	"/>
	<path fill="#C3C2C6" d="M201.136,0.911c109.886,0,199.001,89.113,199.001,199.001c0,109.886-89.116,198.999-199.001,198.999
		c-109.886,0-199-89.113-199-198.999C2.136,90.024,91.25,0.911,201.136,0.911L201.136,0.911z"/>
	<path fill="#DA251B" d="M190.096,232.706l23.775,117.007c23.533-9.519,35.334-29.984,35.334-61.392
		c-1.26-10.351-4.372-19.808-9.522-28.253c-5.092-8.508-11.916-15.168-20.419-20.049
		C210.697,235.143,200.996,232.706,190.096,232.706L190.096,232.706z"/>
	<path fill="#DA251B" d="M207.884,378.706c-2.24,0.084-4.486,0.139-6.748,0.139c-99.473,0-180.143-80.127-180.143-178.933
		c0-77.165,49.201-142.937,118.133-168.047c1.845,17.413,5.14,34.63,9.887,51.65c-15.63,15.585-28.087,28.492-37.429,38.607
		c-9.341,10.172-18.384,21.472-27.129,33.963c-8.803,12.493-15.869,25.818-21.318,39.974c-5.449,14.097-8.444,28.971-9.043,44.437
		c0.178,16.714,3.353,32.774,9.58,48.181c6.229,15.467,14.973,29.27,26.172,41.402c11.259,12.136,24.254,21.593,39.105,28.434
		c14.852,6.782,30.602,10.172,47.249,10.172c10.003,0,19.522-1.188,28.628-3.567C205.586,368.742,206.6,373.273,207.884,378.706
		L207.884,378.706z"/>
	<path fill="#28166F" d="M152.12,27.686c15.438-4.329,31.715-6.661,48.533-6.705c-2.01,4.06-4.213,8.089-6.604,12.091
		c-5.868,9.814-11.918,18.439-18.265,25.816c-6.288,7.437-12.038,12.671-17.068,15.707c-3.951-9.639-6.347-22.011-7.125-37.121
		C151.663,34.211,151.842,30.947,152.12,27.686z"/>
	<path fill="#28166F" d="M225.931,22.672c87.742,12.007,155.347,86.791,155.347,177.24c0,92.48-70.674,168.594-161.291,177.958
		c-1.471-7.03-2.564-12.828-3.301-17.391c19.044-6.96,33.356-17.845,42.819-32.598c9.462-14.753,14.191-31.111,14.191-49.134
		c0-11.482-1.854-22.545-5.509-33.194c-3.653-10.648-8.864-20.106-15.633-28.374c-6.706-8.33-14.91-14.872-24.492-19.688
		c-9.643-4.82-20.184-7.258-31.74-7.258c-2.574,0-7.245,0.475-14.013,1.367l-12.396-59.902
		c12.097-11.184,22.578-24.15,31.381-38.962c8.802-14.814,15.391-30.518,19.882-47.173
		C223.223,37.974,224.809,30.347,225.931,22.672z"/>
	<path fill="#FFFFFF" d="M179.076,234.192c-9.342,2.616-17.847,8.388-25.634,17.31c-7.725,8.98-11.615,18.738-11.615,29.385
		c0,6.782,2.215,14.277,6.707,22.427c4.491,8.21,11.141,14.156,19.884,17.845c2.935,0.713,4.37,2.143,4.37,4.283
		c0,0.834-1.198,1.606-3.712,2.142c-14.016-3.51-25.452-10.887-34.314-22.01c-8.865-11.184-13.477-24.032-13.836-38.665
		c0.539-15.645,5.33-30.159,14.372-43.602c9.043-13.445,20.842-23.082,35.273-28.79l-10.479-53.954
		c-23.596,19.45-42.818,39.795-57.612,60.972c-14.791,21.178-22.517,44.139-23.175,68.943c0.36,11.065,2.696,21.831,6.945,32.243
		c4.312,10.469,10.721,19.926,19.285,28.493c17.366,17.249,39.766,26.231,67.134,27.063c9.341-0.594,19.343-2.261,30.063-4.937
		L179.076,234.192L179.076,234.192z"/>
</g>
</svg>
